<svg xmlns="http://www.w3.org/2000/svg" width="18" height="18" viewBox="0 0 18 18">
    <path fill="#A6A6A6" fill-rule="evenodd" d="M15.338 15.338H12.67V11.16c0-.996-.018-2.278-1.387-2.278-1.39 0-1.603 1.085-1.603 2.206v4.249H7.013v-8.59h2.56v1.174h.036c.357-.676 1.228-1.388 2.527-1.388 2.703 0 3.202 1.78 3.202 4.092v4.712zM4.004 5.574a1.548 1.548 0 1 1 0-3.097 1.548 1.548 0 0 1 0 3.097zM2.67 15.338h2.67v-8.59h-2.67v8.59zM16.668 0H1.328C.597 0 0 .581 0 1.297v15.404C0 17.418.596 18 1.329 18h15.339c.734 0 1.332-.582 1.332-1.3V1.298C18 .581 17.402 0 16.668 0z"/>
</svg>
