<svg xmlns="http://www.w3.org/2000/svg" width="18" height="18" viewBox="0 0 18 18">
    <path fill="#A6A6A6" fill-rule="evenodd" d="M15.75 16.313H2.25a.563.563 0 0 1-.563-.563V7.312h2.25c-.293.422-.392 1.21-.392 1.709 0 3.012 2.457 5.463 5.476 5.463 3.02 0 5.476-2.451 5.476-5.463 0-.5-.071-1.275-.434-1.709h2.25v8.438c0 .31-.252.563-.563.563M9.02 5.568a3.457 3.457 0 0 1 3.462 3.453 3.458 3.458 0 0 1-3.461 3.454A3.457 3.457 0 0 1 5.56 9.02a3.457 3.457 0 0 1 3.46-3.453M13.5 2.25h1.688c.31 0 .562.252.562.563V4.5c0 .31-.252.563-.563.563H13.5a.563.563 0 0 1-.563-.563V2.812c0-.31.253-.562.563-.562M15.86 0H2.14C.958 0 0 .956 0 2.135v13.73C0 17.045.958 18 2.14 18h13.72c1.182 0 2.14-.956 2.14-2.135V2.135A2.137 2.137 0 0 0 15.86 0"/>
</svg>
