<svg xmlns="http://www.w3.org/2000/svg" width="18" height="18" viewBox="0 0 18 18">
    <path fill="#A6A6A6" fill-rule="evenodd" d="M17.867 3.212a7.146 7.146 0 0 1-2.121.608 3.844 3.844 0 0 0 1.624-2.134 7.217 7.217 0 0 1-2.345.936 3.617 3.617 0 0 0-2.696-1.218c-2.04 0-3.693 1.727-3.693 3.857 0 .303.033.597.096.88-3.07-.161-5.79-1.698-7.612-4.032-.318.57-.5 1.233-.5 1.94 0 1.338.652 2.52 1.643 3.211A3.555 3.555 0 0 1 .59 6.778v.048c0 1.87 1.273 3.429 2.963 3.783a3.551 3.551 0 0 1-1.668.067c.47 1.532 1.833 2.647 3.45 2.679a7.21 7.21 0 0 1-5.468 1.597 10.133 10.133 0 0 0 5.661 1.733c6.793 0 10.507-5.878 10.507-10.976 0-.168-.003-.334-.01-.5a7.684 7.684 0 0 0 1.842-1.997"/>
</svg>
