<svg xmlns="http://www.w3.org/2000/svg" width="148.018" height="51.946" viewBox="0 0 148.018 51.946"><defs><style>.a{fill:#005890;}.b{fill:#008bd2;}</style></defs><g transform="translate(9.973 9.973)"><path class="a" d="M120.1,40.856l2.292-11.943h2.049l-2.3,11.943Zm2.664-15.274A1.36,1.36,0,0,1,124.12,24.2a1.187,1.187,0,0,1,1.21,1.282,1.35,1.35,0,0,1-1.382,1.382A1.18,1.18,0,0,1,122.764,25.582Z" transform="translate(-125.785 -33.309)"/><path class="a" d="M238.2,160.718l1.607-8.465c.271-1.332.421-2.492.568-3.481H242.2l-.3,2.346h.05a5.22,5.22,0,0,1,4.417-2.617c1.432,0,3.035.814,3.035,3.331a11.754,11.754,0,0,1-.221,1.924l-1.332,6.959H245.8l1.307-6.884a7.744,7.744,0,0,0,.171-1.532c0-1.21-.468-2.1-1.874-2.1-1.457,0-3.528,1.753-4.07,4.713l-1.085,5.8H238.2Z" transform="translate(-239.668 -153.171)"/><path class="a" d="M554.886,163.431a6.34,6.34,0,0,0,3.16.789c2,0,3.578-1.035,4.3-4.27l.4-1.778h-.075a4.762,4.762,0,0,1-4.145,2.542c-2.392,0-3.628-2.024-3.628-4.145-.025-4.049,2.96-8.069,7.576-8.069a9.732,9.732,0,0,1,3.824.839l-1.824,9.872c-.493,2.517-1.16,4.27-2.417,5.331a6.3,6.3,0,0,1-4.17,1.332,7.086,7.086,0,0,1-3.578-.839Zm9.155-12.882a5.011,5.011,0,0,0-1.974-.4c-2.985,0-5.034,3.11-5.059,6.07,0,1.307.468,2.863,2.3,2.863,1.753,0,3.528-2.221,3.974-4.567Z" transform="translate(-544.482 -153.171)"/><path class="a" d="M889.3,160.814l1.457-7.7c.3-1.553.493-3.135.618-4.245h1.8c-.1.839-.2,1.678-.321,2.592h.075c.764-1.628,2.049-2.863,3.653-2.863a4,4,0,0,1,.568.05l-.4,2.024a2.894,2.894,0,0,0-.543-.05c-1.778,0-3.356,2.146-3.874,4.934l-.985,5.256Z" transform="translate(-867.521 -153.267)"/><path class="a" d="M1076.79,160.125a8.245,8.245,0,0,1-3.949.939c-3.16,0-4.542-2.146-4.542-4.788,0-3.6,2.663-7.676,6.516-7.676,2.271,0,3.5,1.357,3.5,3.06,0,3.135-3.528,3.974-7.948,3.9a4.942,4.942,0,0,0,.246,2.271,2.716,2.716,0,0,0,2.663,1.6,6.661,6.661,0,0,0,3.21-.839Zm-2.271-9.922c-1.949,0-3.406,1.9-3.9,3.777,3.21.025,5.727-.4,5.727-2.246C1076.344,150.746,1075.605,150.2,1074.52,150.2Z" transform="translate(-1040.13 -153.267)"/><path class="a" d="M1325.364,158.744a5.425,5.425,0,0,0,2.567.739,2.061,2.061,0,0,0,2.271-1.949c0-.939-.421-1.507-1.653-2.2a3.561,3.561,0,0,1-2.146-3.035c0-2.1,1.8-3.7,4.32-3.7a4.959,4.959,0,0,1,2.492.593l-.568,1.553a4.286,4.286,0,0,0-2.074-.543,1.915,1.915,0,0,0-2.121,1.8c0,.864.568,1.407,1.628,2a3.761,3.761,0,0,1,2.246,3.135c0,2.517-2.049,3.924-4.567,3.924a5.25,5.25,0,0,1-2.96-.814Z" transform="translate(-1287.472 -153.267)"/><path class="a" d="M1543.064,158.744a5.426,5.426,0,0,0,2.567.739,2.061,2.061,0,0,0,2.271-1.949c0-.939-.421-1.507-1.653-2.2a3.561,3.561,0,0,1-2.146-3.035c0-2.1,1.8-3.7,4.32-3.7a4.959,4.959,0,0,1,2.492.593l-.568,1.553a4.286,4.286,0,0,0-2.074-.543,1.915,1.915,0,0,0-2.121,1.8c0,.864.568,1.407,1.628,2a3.761,3.761,0,0,1,2.246,3.135c0,2.517-2.049,3.924-4.567,3.924a5.249,5.249,0,0,1-2.96-.814Z" transform="translate(-1497.399 -153.267)"/><path class="a" d="M1789.476,153.584c0,3.678-2.617,7.5-6.612,7.5-2.985,0-4.663-2.221-4.663-4.909,0-3.924,2.739-7.576,6.612-7.576C1788.044,148.6,1789.476,151.042,1789.476,153.584Zm-9.155,2.517c0,1.949,1.06,3.356,2.813,3.356,2.417,0,4.245-3.11,4.245-5.9,0-1.382-.643-3.331-2.788-3.331C1782.024,150.228,1780.3,153.363,1780.321,156.1Z" transform="translate(-1724.684 -153.267)"/><path class="a" d="M2209.4,157.439l1.357-7.18c.346-1.824.493-3.849.618-4.888h3.085c-.075.814-.146,1.628-.221,2.467h.075a4.51,4.51,0,0,1,3.849-2.738,6,6,0,0,1,.667.025l-.693,3.456a4.127,4.127,0,0,0-.568-.025c-2.271,0-3.331,2.024-3.778,4.392l-.839,4.492Z" transform="translate(-2140.488 -149.892)"/><path class="a" d="M2442.905,24.174c.025-.714.1-1.532.171-2.392H2443a4.551,4.551,0,0,1-4.049,2.664c-2.171,0-3.653-1.678-3.653-4.2,0-4.07,2.689-8.415,8.637-8.415a14.377,14.377,0,0,1,4,.593l-1.282,6.316a29.108,29.108,0,0,0-.468,5.431Zm1.035-9.551a5.443,5.443,0,0,0-.964-.1c-2.3,0-3.974,2.813-3.974,5.059,0,1.185.468,2,1.457,2,1.06,0,2.371-1.21,2.914-4.17Zm3.9-7.723-3.21,3.752h-2.617l2.321-3.752Z" transform="translate(-2358.323 -16.627)"/><path class="a" d="M2754.7,162.424l2.321-12.289c.271-1.432.568-3.431.714-4.663h3.185l-.221,1.753h.05a4.881,4.881,0,0,1,3.874-2.024c2.617,0,3.874,2.1,3.874,4.567,0,4.2-2.789,8.044-6.984,8.044a4.815,4.815,0,0,1-2.246-.493h-.05l-.985,5.109-3.531,0Zm5.059-7.9a2.3,2.3,0,0,0,1.628.593c1.9,0,3.381-2.714,3.381-5.084,0-.964-.4-1.974-1.553-1.974-1.332,0-2.567,1.507-3.01,3.874Z" transform="translate(-2666.319 -149.989)"/><path class="a" d="M3138.3,22.824l2.3-12.068h3.552l-2.3,12.068Zm2.788-15.3a2.023,2.023,0,0,1,2.05-2.024,1.68,1.68,0,0,1,1.778,1.753,1.972,1.972,0,0,1-2.1,2A1.647,1.647,0,0,1,3141.089,7.524Z" transform="translate(-3036.223 -15.277)"/><path class="a" d="M3312.446,0,3310,12.832a32.349,32.349,0,0,0-.568,4.688h-3.256l.171-1.949h-.05a4.635,4.635,0,0,1-3.949,2.221c-2.05,0-3.753-1.628-3.753-4.567,0-4.2,3.035-8.044,7.6-8.044a4.963,4.963,0,0,1,1.653.271L3308.89,0Zm-5.106,8.29a2.385,2.385,0,0,0-1.407-.421c-2.121,0-3.628,2.467-3.628,4.788,0,1.457.643,2.271,1.678,2.271,1.01,0,2.271-1.085,2.739-3.381Z" transform="translate(-3190.8 -9.973)"/><path class="a" d="M3669.014,150.059c0,4.417-3.01,7.651-7.205,7.651a4.775,4.775,0,0,1-5.109-4.984c0-4.2,2.914-7.626,7.205-7.626A4.792,4.792,0,0,1,3669.014,150.059Zm-8.637,2.592c0,1.407.693,2.346,1.924,2.346,1.95,0,3.035-2.838,3.035-4.909,0-1.11-.468-2.3-1.9-2.3C3661.388,147.792,3660.353,150.777,3660.377,152.651Z" transform="translate(-3536.114 -149.892)"/><path class="b" d="M148.018,617.2a481.92,481.92,0,0,0-110.068-1.26c-11.807,1.26-23.279,3.024-35.047,5.166L0,643.422c37.443-29.8,102.631-29.288,148.018-26.221" transform="translate(-9.973 -601.449)"/></g></svg>