<svg xmlns="http://www.w3.org/2000/svg" width="124" height="51" viewBox="0 0 124 51"><defs><style>.a{fill:#fff;}</style></defs><path class="a" d="M120.1,40.553l1.92-11.726h1.717l-1.923,11.726Zm2.231-15a1.251,1.251,0,0,1,1.137-1.357c.619,0,1.014.533,1.014,1.258a1.238,1.238,0,0,1-1.158,1.357C122.723,26.815,122.331,26.282,122.331,25.557Z" transform="translate(-116.508 -23.352)"/><path class="a" d="M238.2,160.5l1.346-8.311c.227-1.308.353-2.447.476-3.418h1.528l-.248,2.3h.042a4.311,4.311,0,0,1,3.7-2.569c1.2,0,2.542.8,2.542,3.271a13.449,13.449,0,0,1-.185,1.889l-1.116,6.832h-1.717l1.095-6.758a8.86,8.86,0,0,0,.144-1.5c0-1.188-.392-2.061-1.57-2.061-1.22,0-2.955,1.721-3.41,4.627l-.909,5.693H238.2Z" transform="translate(-231.075 -143.294)"/><path class="a" d="M554.791,163.16a4.716,4.716,0,0,0,2.647.775c1.675,0,3-1.017,3.6-4.192l.332-1.746h-.063a3.955,3.955,0,0,1-3.473,2.5c-2,0-3.039-1.988-3.039-4.07-.021-3.975,2.48-7.922,6.347-7.922a7.167,7.167,0,0,1,3.2.824l-1.528,9.692c-.413,2.471-.972,4.192-2.025,5.234a4.776,4.776,0,0,1-3.494,1.308,5.255,5.255,0,0,1-3-.824Zm7.669-12.647a3.682,3.682,0,0,0-1.654-.389c-2.5,0-4.217,3.053-4.238,5.959,0,1.283.392,2.811,1.923,2.811,1.469,0,2.955-2.18,3.329-4.483Z" transform="translate(-537.721 -143.294)"/><path class="a" d="M889.3,160.592l1.22-7.558c.248-1.525.413-3.078.517-4.168h1.51c-.084.824-.165,1.648-.269,2.545h.063c.64-1.6,1.717-2.811,3.06-2.811a2.871,2.871,0,0,1,.476.049l-.332,1.988a2.082,2.082,0,0,0-.455-.049c-1.49,0-2.812,2.107-3.245,4.844l-.826,5.16Z" transform="translate(-862.701 -143.391)"/><path class="a" d="M1075.413,159.915a6.113,6.113,0,0,1-3.308.922c-2.647,0-3.8-2.107-3.8-4.7,0-3.537,2.231-7.537,5.459-7.537a2.8,2.8,0,0,1,2.934,3c0,3.078-2.955,3.9-6.658,3.828a5.642,5.642,0,0,0,.206,2.229,2.266,2.266,0,0,0,2.231,1.574,4.97,4.97,0,0,0,2.689-.824Zm-1.9-9.741c-1.633,0-2.854,1.865-3.266,3.709,2.689.025,4.8-.389,4.8-2.2A1.405,1.405,0,0,0,1073.51,150.174Z" transform="translate(-1036.347 -143.391)"/><path class="a" d="M1325.273,158.559a4.071,4.071,0,0,0,2.151.726,1.852,1.852,0,0,0,1.9-1.914,2.355,2.355,0,0,0-1.385-2.156,3.536,3.536,0,0,1,1.822-6.615,3.683,3.683,0,0,1,2.088.582l-.476,1.525a3.2,3.2,0,0,0-1.738-.533,1.715,1.715,0,0,0-1.777,1.77c0,.848.476,1.381,1.364,1.963a3.722,3.722,0,0,1,1.881,3.078,3.639,3.639,0,0,1-3.826,3.852,3.942,3.942,0,0,1-2.48-.8Z" transform="translate(-1285.174 -143.391)"/><path class="a" d="M1542.973,158.559a4.07,4.07,0,0,0,2.15.726,1.852,1.852,0,0,0,1.9-1.914,2.355,2.355,0,0,0-1.385-2.156,3.536,3.536,0,0,1,1.822-6.615,3.683,3.683,0,0,1,2.088.582l-.476,1.525a3.2,3.2,0,0,0-1.738-.533,1.715,1.715,0,0,0-1.777,1.77c0,.848.476,1.381,1.364,1.963a3.722,3.722,0,0,1,1.882,3.078,3.639,3.639,0,0,1-3.826,3.852,3.942,3.942,0,0,1-2.479-.8Z" transform="translate(-1496.363 -143.391)"/><path class="a" d="M1787.646,153.494c0,3.611-2.192,7.365-5.539,7.365-2.5,0-3.906-2.18-3.906-4.82,0-3.852,2.294-7.438,5.54-7.438C1786.447,148.6,1787.646,151,1787.646,153.494Zm-7.669,2.471c0,1.914.888,3.3,2.357,3.3,2.025,0,3.557-3.053,3.557-5.791,0-1.357-.538-3.271-2.336-3.271C1781.4,150.2,1779.956,153.276,1779.977,155.965Z" transform="translate(-1725.013 -143.391)"/><path class="a" d="M2209.4,157.215l1.137-7.049c.29-1.791.413-3.779.518-4.8h2.584c-.063.8-.123,1.6-.186,2.422h.063c.7-1.574,1.839-2.689,3.224-2.689a4.294,4.294,0,0,1,.559.025l-.58,3.393a2.955,2.955,0,0,0-.476-.025c-1.9,0-2.791,1.988-3.165,4.312l-.7,4.41Z" transform="translate(-2143.316 -140.014)"/><path class="a" d="M2441.671,23.859c.021-.7.084-1.5.144-2.349h-.063c-.93,1.963-2.213,2.615-3.392,2.615-1.819,0-3.06-1.648-3.06-4.119,0-4,2.252-8.262,7.236-8.262a10.426,10.426,0,0,1,3.35.582l-1.074,6.2a33.37,33.37,0,0,0-.391,5.332Zm.867-9.377a3.917,3.917,0,0,0-.807-.1c-1.924,0-3.329,2.762-3.329,4.967,0,1.164.392,1.963,1.22,1.963.888,0,1.986-1.188,2.441-4.094ZM2445.8,6.9l-2.689,3.684h-2.193l1.944-3.684Z" transform="translate(-2362.459 -6.658)"/><path class="a" d="M2754.7,162.11l1.944-12.066c.228-1.406.476-3.369.6-4.578h2.668l-.186,1.721h.042a3.942,3.942,0,0,1,3.246-1.988c2.192,0,3.245,2.061,3.245,4.483,0,4.119-2.336,7.9-5.851,7.9a3.559,3.559,0,0,1-1.881-.484h-.042l-.826,5.016-2.958,0Zm4.238-7.754a1.777,1.777,0,0,0,1.364.582c1.591,0,2.833-2.664,2.833-4.992,0-.946-.332-1.938-1.3-1.938-1.116,0-2.15,1.479-2.521,3.8Z" transform="translate(-2672.305 -140.11)"/><path class="a" d="M3138.3,22.508l1.923-11.848h2.976l-1.923,11.848Zm2.336-15.021a1.849,1.849,0,0,1,1.717-1.988,1.538,1.538,0,0,1,1.49,1.721,1.792,1.792,0,0,1-1.759,1.963A1.51,1.51,0,0,1,3140.636,7.488Z" transform="translate(-3044.432 -5.307)"/><path class="a" d="M3310.2,0l-2.046,12.6a37,37,0,0,0-.476,4.6h-2.728l.144-1.914h-.042a3.785,3.785,0,0,1-3.308,2.18c-1.717,0-3.144-1.6-3.144-4.483,0-4.119,2.542-7.9,6.368-7.9a3.608,3.608,0,0,1,1.385.266L3307.22,0Zm-4.277,8.14a1.8,1.8,0,0,0-1.178-.414c-1.777,0-3.039,2.422-3.039,4.7,0,1.43.539,2.229,1.406,2.229.846,0,1.9-1.066,2.294-3.32Z" transform="translate(-3199.937)"/><path class="a" d="M3667.016,149.969c0,4.336-2.522,7.512-6.036,7.512-2.563,0-4.28-1.963-4.28-4.894,0-4.119,2.441-7.488,6.036-7.488C3665.446,145.1,3667.016,147.28,3667.016,149.969Zm-7.235,2.545c0,1.381.58,2.3,1.612,2.3,1.633,0,2.543-2.787,2.543-4.82,0-1.09-.392-2.254-1.592-2.254C3660.627,147.743,3659.76,150.674,3659.781,152.514Z" transform="translate(-3547.326 -140.014)"/><path class="a" d="M124,617.131a344.931,344.931,0,0,0-92.208-1.237c-9.891,1.237-19.5,2.969-29.36,5.072L0,642.875c31.367-29.253,85.978-28.755,124-25.744" transform="translate(0 -591.875)"/></svg>