<?xml version="1.0" encoding="UTF-8" standalone="no"?>
<svg
   xmlns:dc="http://purl.org/dc/elements/1.1/"
   xmlns:cc="http://creativecommons.org/ns#"
   xmlns:rdf="http://www.w3.org/1999/02/22-rdf-syntax-ns#"
   xmlns:svg="http://www.w3.org/2000/svg"
   xmlns="http://www.w3.org/2000/svg"
   xmlns:sodipodi="http://sodipodi.sourceforge.net/DTD/sodipodi-0.dtd"
   xmlns:inkscape="http://www.inkscape.org/namespaces/inkscape"
   width="24"
   height="24"
   viewBox="0 0 24 24"
   version="1.1"
   id="svg14"
   sodipodi:docname="ticket_canceled.svg"
   inkscape:version="0.92.5 (2060ec1f9f, 2020-04-08)">
  <metadata
     id="metadata18">
    <rdf:RDF>
      <cc:Work
         rdf:about="">
        <dc:format>image/svg+xml</dc:format>
        <dc:type
           rdf:resource="http://purl.org/dc/dcmitype/StillImage" />
        <dc:title></dc:title>
      </cc:Work>
    </rdf:RDF>
  </metadata>
  <sodipodi:namedview
     pagecolor="#ffffff"
     bordercolor="#666666"
     borderopacity="1"
     objecttolerance="10"
     gridtolerance="10"
     guidetolerance="10"
     inkscape:pageopacity="0"
     inkscape:pageshadow="2"
     inkscape:window-width="1920"
     inkscape:window-height="1025"
     id="namedview16"
     showgrid="false"
     inkscape:zoom="22.627417"
     inkscape:cx="0.92257699"
     inkscape:cy="8.5145927"
     inkscape:window-x="1920"
     inkscape:window-y="27"
     inkscape:window-maximized="1"
     inkscape:current-layer="prefix___Group_"
     inkscape:object-paths="true"
     inkscape:snap-intersection-paths="true"
     inkscape:snap-nodes="false" />
  <defs
     id="defs4">
    <style
       id="style2">
            .prefix__cls-1{fill:none;stroke:#5067ed;stroke-linecap:round;stroke-linejoin:round}
        </style>
  </defs>
  <g
     id="prefix__ticket-clock">
    <g
       id="prefix___Group_"
       data-name="&lt;Group&gt;">
      <circle
         id="prefix__Elipse_27"
         cx="6"
         cy="6"
         r="6"
         class="prefix__cls-1"
         data-name="Elipse 27"
         transform="translate(11.5 11.5)" />
      <g
         id="g58"
         transform="matrix(-0.63636863,-0.63636863,0.63636863,-0.63636863,17.5,39.772902)"
         style="fill:#5067ed;fill-opacity:1;stroke:#5067ed;stroke-width:1;stroke-miterlimit:3.5;stroke-dasharray:none;stroke-opacity:1">
        <path
           inkscape:connector-curvature="0"
           id="path39"
           d="m 17.5,13.5 v 8"
           style="fill:#5067ed;fill-opacity:1;stroke:#5067ed;stroke-width:1;stroke-linecap:round;stroke-linejoin:miter;stroke-miterlimit:3.5;stroke-dasharray:none;stroke-opacity:1" />
        <path
           inkscape:connector-curvature="0"
           id="path39-6"
           d="m 21.5,17.5 h -8"
           style="fill:#5067ed;fill-opacity:1;stroke:#5067ed;stroke-width:1;stroke-linecap:round;stroke-linejoin:miter;stroke-miterlimit:3.5;stroke-dasharray:none;stroke-opacity:1" />
      </g>
    </g>
    <path
       id="prefix__Caminho_283"
       d="M9 16.5H1.5a1 1 0 0 1-1-1v-3.031a.5.5 0 0 1 .437-.5 3.5 3.5 0 0 0 0-6.946.5.5 0 0 1-.437-.5V1.5a1 1 0 0 1 1-1h21a1 1 0 0 1 1 1v3.031a.5.5 0 0 1-.437.5 3.5 3.5 0 0 0-3.025 3.991"
       class="prefix__cls-1"
       data-name="Caminho 283" />
    <path
       id="prefix__Caminho_284"
       d="M16.25 3a.25.25 0 1 1-.25-.25.25.25 0 0 1 .25.25"
       class="prefix__cls-1"
       data-name="Caminho 284" />
    <path
       id="prefix__Caminho_285"
       d="M16.25 6a.25.25 0 1 1-.25-.25.25.25 0 0 1 .25.25"
       class="prefix__cls-1"
       data-name="Caminho 285" />
    <path
       id="prefix__Caminho_286"
       d="M16.25 9a.25.25 0 1 1-.25-.25.25.25 0 0 1 .25.25"
       class="prefix__cls-1"
       data-name="Caminho 286" />
  </g>
</svg>
